# xmcd
#
# Track frame offsets: 
#        150
#        17981
#        35828
#        52020
#        75260
#        97664
#        117529
#        134632
#        155439
#        172764
#        196058
#        216747
#
# Disc length: 3141 seconds
#
# Revision: 0
# Processed by: cddbd v1.5.2PL0 Copyright (c) Steve Scherf et al.
# Submitted via: ExactAudioCopy v1.3
#
DISCID=a20c430c
DTITLE=Do as Infinity - Time Machine
DYEAR=2012
DGENRE=JPop
TTITLE0=TIME MACHINE
TTITLE1=アリアドネの糸
TTITLE2=Why?
TTITLE3=PRIDE
TTITLE4=黄昏
TTITLE5=誓い
TTITLE6=御伽話
TTITLE7=恋歌
TTITLE8=Sun Shower
TTITLE9=もう一人の僕へ
TTITLE10=君の為に今できること
TTITLE11=Go Ahead!
EXTD=
EXTT0=
EXTT1=
EXTT2=
EXTT3=
EXTT4=
EXTT5=
EXTT6=
EXTT7=
EXTT8=
EXTT9=
EXTT10=
EXTT11=
PLAYORDER=
